<svg id="レイヤー_1" data-name="レイヤー 1" xmlns="http://www.w3.org/2000/svg" viewBox="0 0 146.5 141.57"><path d="M106.5,52.15V43.43C106.5,32.07,96,5.5,64.07,5.5S22.5,29.25,22.5,42.66v91.41" style="fill:none;stroke:#00171F;stroke-linecap:round;stroke-linejoin:round;stroke-width:11px"/><path d="M106.5,36.57a40,40,0,0,0-40,40v19l.5,0c11.85,0,21.5,11,21.5,24.5,0,9-4.27,16.86-10.63,21.12a14.61,14.61,0,0,0,3.26.38h50.74a14.63,14.63,0,0,0,14.63-14.63V76.57A40,40,0,0,0,106.5,36.57Z" style="fill:#00171F"/><path d="M67,140.57c-9.65,0-17.5-9.19-17.5-20.5s7.85-20.5,17.5-20.5,17.5,9.2,17.5,20.5S76.65,140.57,67,140.57Zm0-30c-3.52,0-6.5,4.35-6.5,9.5s3,9.5,6.5,9.5,6.5-4.35,6.5-9.5S70.52,110.57,67,110.57Z" style="fill:#00171F"/><path d="M12.58,124.57H32.92A12.58,12.58,0,0,1,45.5,137.15v1.91A2.52,2.52,0,0,1,43,141.57H2.52A2.52,2.52,0,0,1,0,139.05v-1.91A12.58,12.58,0,0,1,12.58,124.57Z" style="fill:#00171F"/></svg>