<svg xmlns="http://www.w3.org/2000/svg" viewBox="0 0 139.19 139.19"><g id="レイヤー_3" data-name="レイヤー 3"><path d="M136.86,125.54l-18-18a66.5,66.5,0,1,0-11.31,11.31l18,18a8,8,0,1,0,11.32-11.32Zm-54.69-14A26.36,26.36,0,0,1,64,104a4.93,4.93,0,0,0-4.36-1.27,36.78,36.78,0,0,1-6.94.67c-17.67,0-32-12.74-32-28.45,0-13.63,10.78-25,25.18-27.79a5,5,0,0,0,4.06-5V42.1C49.91,30,61,20.17,74.76,20.17S99.61,30,99.61,42.1a20.14,20.14,0,0,1-.14,2.34,4.93,4.93,0,0,0,1.43,4.1c6.57,6.52,10.77,16.4,10.77,27.46C111.67,95.64,98.46,111.56,82.17,111.56Z" style="fill:#00171F"/><path d="M58.67,55.17a16,16,0,1,0,16,16A16,16,0,0,0,58.67,55.17Zm9,17.5a1.5,1.5,0,0,1-1.5-1.5,7.51,7.51,0,0,0-7.5-7.5,1.5,1.5,0,0,1,0-3,10.51,10.51,0,0,1,10.5,10.5A1.5,1.5,0,0,1,67.67,72.67Z" style="fill:#00171F"/></g></svg>