<svg xmlns="http://www.w3.org/2000/svg" xmlns:xlink="http://www.w3.org/1999/xlink" viewBox="0 0 144.69 127"><defs><symbol id="rattaco_icon" data-name="rattaco_icon" viewBox="0 0 144.69 127"><g id="レイヤー_6" data-name="レイヤー 6"><path d="M104.29,30.2l-3.36-3.35a3.62,3.62,0,0,1,0-5.13L110.65,12a3.62,3.62,0,0,1,5.13,0l3.35,3.36a3.61,3.61,0,0,1,0,5.12l-9.72,9.72A3.61,3.61,0,0,1,104.29,30.2Z" style="fill:#757883"/><circle cx="117.28" cy="13.5" r="12.5" style="fill:none;stroke:#757883;stroke-miterlimit:10;stroke-width:2px"/></g><path d="M84.52,127a6.37,6.37,0,0,1-6.25-5l-4-17.64a2,2,0,0,0-3.91,0l-4,17.64a6.39,6.39,0,0,1-6.26,5,6.1,6.1,0,0,1-1.41-.16,6.42,6.42,0,0,1-4.86-7.67l3.38-15a2,2,0,0,0-1.12-2.26,2,2,0,0,0-.83-.18,2,2,0,0,0-1.61.82L42.44,117.86a6.47,6.47,0,0,1-5.18,2.61,6.41,6.41,0,0,1-5.16-10.22l7.18-9.74A2,2,0,0,0,39.12,98a2,2,0,0,0-1.46-.63,2,2,0,0,0-1.09.33l-14.44,9.49a6.42,6.42,0,1,1-7-10.72l7.79-5.13a2,2,0,0,0,.72-2.5,2,2,0,0,0-1.82-1.17,2,2,0,0,0-.54.08l-13,3.72a6.62,6.62,0,0,1-1.76.25A6.42,6.42,0,0,1,.81,82.13a6.32,6.32,0,0,1,3.85-3l19.49-5.56a2,2,0,0,0,1.22-1A2,2,0,0,0,25.5,71a42.52,42.52,0,0,1-2.09-13.47,48.49,48.49,0,0,1,97,0,42.7,42.7,0,0,1-2,13.25,2,2,0,0,0,.14,1.56,2,2,0,0,0,1.22,1L140,79.08a6.42,6.42,0,0,1-1.76,12.59,6.62,6.62,0,0,1-1.76-.25l-13-3.72a2,2,0,0,0-2.37,1.09,2,2,0,0,0,.72,2.5l7.79,5.13a6.42,6.42,0,1,1-7.05,10.72l-14.43-9.49a2,2,0,0,0-1.1-.32,2,2,0,0,0-1.61,3.18l7.17,9.74a6.41,6.41,0,0,1-5.16,10.22,6.46,6.46,0,0,1-5.17-2.61L91,102.55a2,2,0,0,0-3.57,1.62l3.38,15a6.42,6.42,0,0,1-4.85,7.67A6.25,6.25,0,0,1,84.52,127Z" style="fill:#e84855"/><path d="M84.52,127a6.37,6.37,0,0,1-6.25-5l-4-17.64a2,2,0,0,0-3.91,0l-4,17.64a6.39,6.39,0,0,1-6.26,5,6.1,6.1,0,0,1-1.41-.16,6.42,6.42,0,0,1-4.86-7.67l3.38-15a2,2,0,0,0-1.12-2.26,2,2,0,0,0-.83-.18,2,2,0,0,0-1.61.82L42.44,117.86a6.47,6.47,0,0,1-5.18,2.61,6.41,6.41,0,0,1-5.16-10.22l7.18-9.74A2,2,0,0,0,39.12,98a2,2,0,0,0-1.46-.63,2,2,0,0,0-1.09.33l-14.44,9.49a6.42,6.42,0,1,1-7-10.72l7.79-5.13a2,2,0,0,0,.72-2.5,2,2,0,0,0-1.82-1.17,2,2,0,0,0-.54.08l-13,3.72a6.62,6.62,0,0,1-1.76.25A6.42,6.42,0,0,1,.81,82.13a6.32,6.32,0,0,1,3.85-3l19.49-5.56a2,2,0,0,0,1.22-1A2,2,0,0,0,25.5,71a42.52,42.52,0,0,1-2.09-13.47,48.49,48.49,0,0,1,97,0,42.7,42.7,0,0,1-2,13.25,2,2,0,0,0,.14,1.56,2,2,0,0,0,1.22,1L140,79.08a6.42,6.42,0,0,1-1.76,12.59,6.62,6.62,0,0,1-1.76-.25l-13-3.72a2,2,0,0,0-2.37,1.09,2,2,0,0,0,.72,2.5l7.79,5.13a6.42,6.42,0,1,1-7.05,10.72l-14.43-9.49a2,2,0,0,0-1.1-.32,2,2,0,0,0-1.61,3.18l7.17,9.74a6.41,6.41,0,0,1-5.16,10.22,6.46,6.46,0,0,1-5.17-2.61L91,102.55a2,2,0,0,0-3.57,1.62l3.38,15a6.42,6.42,0,0,1-4.85,7.67A6.25,6.25,0,0,1,84.52,127Z" style="fill:#e84855"/><path d="M71.73,33.91a29.9,29.9,0,0,1,4.84-3.55,51.41,51.41,0,0,1,5.34-2.57l5.39-2.48c1.81-.8,3.61-1.62,5.43-2.4l.1.18c-1.68,1.06-3.38,2.07-5.07,3.1l-5.11,3a51.47,51.47,0,0,1-5.16,2.93,29.77,29.77,0,0,1-5.66,2Z" style="fill:#f5df4d"/><ellipse cx="58.22" cy="43.45" rx="5" ry="2.14" transform="translate(-5.89 77.62) rotate(-64.79)" style="fill:#f5df4d"/><ellipse cx="73.05" cy="52.55" rx="5" ry="2.14" transform="translate(-5.61 96.26) rotate(-64.79)" style="fill:#f5df4d"/><ellipse cx="55.59" cy="62.66" rx="10.8" ry="17.28" transform="translate(-24.78 86.27) rotate(-64.79)" style="fill:#f5df4d"/><ellipse cx="55.59" cy="62.66" rx="4.32" ry="10.8" transform="translate(-24.78 86.27) rotate(-64.79)" style="fill:#e84855"/></symbol></defs><g id="レイヤー_2" data-name="レイヤー 2"><g id="レイヤー_4" data-name="レイヤー 4"><use width="144.69" height="127" xlink:href="#rattaco_icon"/></g></g></svg>