<svg xmlns="http://www.w3.org/2000/svg" viewBox="0 0 124 123.97"><g id="レイヤー_5" data-name="レイヤー 5"><path d="M62,41S44.54,41,42.79,24c0,0-20.09,3-42.79,21L6.11,67s21-6,21.83-5-2.62,48-3.49,51,.87,4.8,6.55,6.4A107.84,107.84,0,0,0,62,124" style="fill:#00171F"/><path d="M62,41s17.46,0,19.21-17c0,0,20.09,3,42.79,21l-6.11,22s-21-6-21.83-5,2.62,48,3.49,51-.87,4.8-6.55,6.4A107.84,107.84,0,0,1,62,124" style="fill:#00171F"/><path d="M62,28c-16.5,0-22,3-22,3" style="fill:none;stroke:#00171F;stroke-miterlimit:10;stroke-width:4px"/><path d="M62,28c16.5,0,22,3,22,3" style="fill:none;stroke:#00171F;stroke-miterlimit:10;stroke-width:4px"/><path d="M62,27V22c0-2,3-4,5-6,2.24-2.24,5-9.73-1-13S54,5,54,9" style="fill:none;stroke:#00171F;stroke-linecap:round;stroke-miterlimit:10;stroke-width:4px"/></g></svg>